<svg width="21" height="21" viewBox="0 0 21 21" fill="none" xmlns="http://www.w3.org/2000/svg">
<g clip-path="url(#clip0_52_465)">
<path d="M7.91772 0.224217C5.00298 0.409663 3.19286 1.05066 2.31401 2.20769C2.06809 2.53424 1.83829 3.02204 1.72541 3.46953L1.63269 3.82833V9.87551V15.9227L1.72541 16.2371C1.87861 16.7653 2.21322 17.3458 2.55589 17.6723L2.70102 17.8134V18.8656C2.70102 20.059 2.72118 20.1718 2.98323 20.4702C3.07595 20.575 3.22511 20.6838 3.35009 20.7362C3.5436 20.8209 3.60407 20.8249 4.40633 20.8128C5.35372 20.8007 5.39 20.7927 5.66817 20.5105C5.93425 20.2484 5.97859 20.0791 5.99875 19.3414L6.01488 18.6842H10.3205H14.6261L14.6422 19.3373C14.6623 20.0791 14.7067 20.2484 14.9728 20.5105C15.2509 20.7927 15.2872 20.8007 16.2346 20.8128C17.0369 20.8249 17.0973 20.8209 17.2908 20.7362C17.4158 20.6838 17.565 20.575 17.6577 20.4702C17.9198 20.1718 17.9399 20.059 17.9399 18.8656V17.8134L18.085 17.6723C18.4277 17.3458 18.7623 16.7653 18.9155 16.2371L19.0082 15.9227V9.87551V3.82833L18.9155 3.46953C18.3955 1.42559 16.5491 0.470135 12.6386 0.220185C11.933 0.175839 8.63129 0.175839 7.91772 0.224217ZM16.8111 7.23491V9.93598H10.3205H3.82983V7.23491V4.53384H10.3205H16.8111V7.23491ZM5.84959 13.3063C6.16807 13.403 6.3253 13.4917 6.543 13.7094C7.1719 14.3303 7.19206 15.2978 6.58734 15.9428C5.73671 16.8499 4.20879 16.4548 3.88627 15.2373C3.57585 14.0763 4.70466 12.9676 5.84959 13.3063ZM15.6138 13.3022C16.8071 13.6127 17.2062 15.1083 16.3314 15.9711C15.7065 16.5879 14.751 16.6 14.11 15.9993C13.4529 15.3865 13.4489 14.3504 14.0979 13.7094C14.5051 13.3022 15.0574 13.1571 15.6138 13.3022Z" fill="#95A4BC"/>
</g>
<defs>
<clipPath id="clip0_52_465">
<rect width="20.641" height="20.641" fill="white" transform="translate(0 0.179688)"/>
</clipPath>
</defs>
</svg>
