<svg width="22" height="21" viewBox="0 0 22 21" fill="none" xmlns="http://www.w3.org/2000/svg">
<path d="M5.15622 3.1813C4.7692 3.28497 4.38564 3.59596 4.22323 3.94497C4.18176 4.03482 3.69108 5.42394 3.13128 7.03421L2.11536 9.9645L2.12227 14.0869L2.13263 18.2094L2.20866 18.3476C2.30195 18.5238 2.47128 18.6828 2.66824 18.7865C2.81337 18.8625 2.86866 18.8659 3.53212 18.8763C4.35799 18.8901 4.51349 18.8556 4.7692 18.6033C5.03528 18.3372 5.06983 18.2267 5.0802 17.5252L5.09402 16.9136H10.9615H16.829L16.8428 17.5252C16.8532 18.2267 16.8877 18.3372 17.1538 18.6033C17.4095 18.8556 17.565 18.8901 18.3909 18.8763C19.0544 18.8659 19.1096 18.8625 19.2548 18.7865C19.4725 18.6724 19.6314 18.5135 19.7247 18.3131L19.8077 18.1403V14.0489V9.96105L18.7917 7.03421C18.2319 5.42394 17.7413 4.03482 17.6998 3.94497C17.5961 3.72382 17.3681 3.47848 17.1434 3.34371C16.7564 3.11219 17.1262 3.12601 10.9442 3.12947C6.13068 3.12947 5.31863 3.13638 5.15622 3.1813ZM17.0847 6.82343C17.4786 8.01213 17.8035 8.9935 17.8035 9.00732C17.8035 9.0246 14.7246 9.03497 10.9615 9.03497C7.19844 9.03497 4.11956 9.0246 4.11956 9.00732C4.11956 8.98659 5.49486 4.83995 5.55361 4.68791C5.56397 4.65336 6.66629 4.64644 10.965 4.65336L16.3625 4.66372L17.0847 6.82343ZM5.95445 11.0875C6.21361 11.167 6.38639 11.2707 6.57644 11.4607C7.03948 11.9238 7.13624 12.6805 6.80451 13.2092C6.65592 13.4408 6.51079 13.5894 6.29655 13.7172C5.55706 14.1664 4.60334 13.8623 4.23705 13.0641C3.88804 12.3004 4.29234 11.3813 5.09748 11.1048C5.31863 11.0288 5.73675 11.0219 5.95445 11.0875ZM16.7806 11.091C17.3128 11.2534 17.724 11.7303 17.7965 12.2763C17.9313 13.2645 17.0536 14.0973 16.0826 13.8934C15.3293 13.7379 14.8282 13.033 14.9354 12.2832C15.0148 11.7303 15.4122 11.2603 15.9513 11.091C16.1483 11.0288 16.5767 11.0288 16.7806 11.091Z" fill="#fff"/>
</svg>
