<svg xmlns="http://www.w3.org/2000/svg" width="16" height="16" viewBox="0 0 16 16" fill="none">
  <path d="M9.99998 14.6668V12.0002C10.0933 11.1668 9.85332 10.3268 9.33332 9.66683C11.3333 9.66683 13.3333 8.3335 13.3333 6.00016C13.3866 5.16683 13.1533 4.34683 12.6666 3.66683C12.8533 2.90016 12.8533 2.10016 12.6666 1.3335C12.6666 1.3335 12 1.3335 10.6666 2.3335C8.90665 2.00016 7.09332 2.00016 5.33332 2.3335C3.99998 1.3335 3.33332 1.3335 3.33332 1.3335C3.13332 2.10016 3.13332 2.90016 3.33332 3.66683C2.84665 4.34683 2.61332 5.16683 2.66665 6.00016C2.66665 8.3335 4.66665 9.66683 6.66665 9.66683C6.40665 9.9935 6.21331 10.3668 6.09998 10.7668C5.98665 11.1668 5.95332 11.5868 5.99998 12.0002V14.6668" stroke="#21D6B1" stroke-width="1.5" stroke-linecap="round" stroke-linejoin="round"/>
  <path d="M6.00004 11.9998C2.99337 13.3332 2.66671 10.6665 1.33337 10.6665" stroke="#21D6B1" stroke-width="1.5" stroke-linecap="round" stroke-linejoin="round"/>
</svg>