<svg width="131" height="27" viewBox="0 0 131 27" fill="none" xmlns="http://www.w3.org/2000/svg">
<path d="M0 21.752L3.80728 2.81411H13.4343C15.5917 2.81411 17.2325 3.20189 18.3565 3.97744C19.4806 4.73496 20.0426 5.82614 20.0426 7.25099C20.0426 8.42333 19.7163 9.41532 19.0636 10.2269C18.4109 11.0386 17.5316 11.6608 16.4257 12.0937C15.3198 12.5085 14.0779 12.7159 12.7 12.7159L13.4615 11.4173C15.2201 11.4173 16.6161 11.7961 17.6495 12.5536C18.6829 13.3111 19.1996 14.3752 19.1996 15.746C19.1996 17.1167 18.8098 18.244 18.0302 19.1277C17.2687 20.0115 16.2263 20.6698 14.9028 21.1027C13.5974 21.5356 12.1198 21.752 10.47 21.752H0ZM6.09165 17.8833H10.7692C11.7119 17.8833 12.4552 17.6939 12.9991 17.3151C13.5612 16.9364 13.8422 16.3772 13.8422 15.6378C13.8422 15.0786 13.6337 14.6728 13.2167 14.4203C12.7997 14.1678 12.2649 14.0416 11.6122 14.0416H6.41799L7.15225 10.3352H11.4762C12.1108 10.3352 12.6456 10.254 13.0807 10.0917C13.534 9.92935 13.8694 9.68586 14.0869 9.36121C14.3045 9.03656 14.4133 8.63977 14.4133 8.17083C14.4133 7.64778 14.2139 7.26902 13.815 7.03455C13.4161 6.80009 12.8632 6.68285 12.1561 6.68285H8.34882L6.09165 17.8833Z" fill="url(#paint0_linear_52_8379)"/>
<path d="M20.656 21.752L23.593 7.08866H28.7329L25.7958 21.752H20.656ZM26.8836 5.46542C25.9771 5.46542 25.2519 5.22193 24.708 4.73496C24.1823 4.22995 23.9194 3.62574 23.9194 2.92233C23.9194 2.09267 24.2185 1.39828 24.8168 0.839164C25.4332 0.280047 26.24 0.000488281 27.2371 0.000488281C28.1436 0.000488281 28.8688 0.234957 29.4127 0.703894C29.9566 1.17283 30.2286 1.759 30.2286 2.46241C30.2286 3.34618 29.9204 4.06762 29.304 4.62674C28.6875 5.18586 27.8808 5.46542 26.8836 5.46542Z" fill="url(#paint1_linear_52_8379)"/>
<path d="M29.3726 21.752L33.1799 2.81411H42.8068C44.9643 2.81411 46.6051 3.20189 47.7291 3.97744C48.8532 4.73496 49.4152 5.82614 49.4152 7.25099C49.4152 8.42333 49.0889 9.41532 48.4362 10.2269C47.7835 11.0386 46.9042 11.6608 45.7983 12.0937C44.6924 12.5085 43.4505 12.7159 42.0726 12.7159L42.834 11.4173C44.5926 11.4173 45.9886 11.7961 47.022 12.5536C48.0555 13.3111 48.5722 14.3752 48.5722 15.746C48.5722 17.1167 48.1824 18.244 47.4028 19.1277C46.6413 20.0115 45.5989 20.6698 44.2754 21.1027C42.97 21.5356 41.4924 21.752 39.8426 21.752H29.3726ZM35.4642 17.8833H40.1417C41.0845 17.8833 41.8278 17.6939 42.3717 17.3151C42.9338 16.9364 43.2148 16.3772 43.2148 15.6378C43.2148 15.0786 43.0063 14.6728 42.5893 14.4203C42.1723 14.1678 41.6375 14.0416 40.9848 14.0416H35.7906L36.5248 10.3352H40.8488C41.4834 10.3352 42.0182 10.254 42.4533 10.0917C42.9066 9.92935 43.242 9.68586 43.4595 9.36121C43.6771 9.03656 43.7859 8.63977 43.7859 8.17083C43.7859 7.64778 43.5864 7.26902 43.1876 7.03455C42.7887 6.80009 42.2358 6.68285 41.5287 6.68285H37.7214L35.4642 17.8833Z" fill="url(#paint2_linear_52_8379)"/>
<path d="M50.0286 21.752L52.9656 7.08866H58.1054L55.1684 21.752H50.0286ZM56.2562 5.46542C55.3497 5.46542 54.6245 5.22193 54.0806 4.73496C53.5548 4.22995 53.292 3.62574 53.292 2.92233C53.292 2.09267 53.5911 1.39828 54.1894 0.839164C54.8058 0.280047 55.6126 0.000488281 56.6097 0.000488281C57.5162 0.000488281 58.2414 0.234957 58.7853 0.703894C59.3292 1.17283 59.6012 1.759 59.6012 2.46241C59.6012 3.34618 59.293 4.06762 58.6765 4.62674C58.0601 5.18586 57.2533 5.46542 56.2562 5.46542Z" fill="url(#paint3_linear_52_8379)"/>
<path d="M68.5353 21.9955C67.3569 21.9955 66.3325 21.77 65.4623 21.3191C64.5921 20.8502 63.9575 20.1017 63.5587 19.0736C63.1598 18.0456 63.0691 16.6748 63.2867 14.9614C63.468 13.2841 63.8578 11.8412 64.4561 10.6328C65.0725 9.42434 65.8702 8.49548 66.8492 7.84618C67.8464 7.17884 68.9976 6.84518 70.303 6.84518C71.3726 6.84518 72.3789 7.1067 73.3216 7.62975C74.2825 8.15279 75.053 8.91031 75.6332 9.90229C76.2315 10.8762 76.5306 12.0756 76.5306 13.5005C76.5306 14.7269 76.3221 15.8542 75.9051 16.8823C75.4881 17.9103 74.908 18.8121 74.1646 19.5877C73.4395 20.3452 72.5964 20.9404 71.6355 21.3732C70.6746 21.7881 69.6412 21.9955 68.5353 21.9955ZM57.4398 27.0005L61.4375 7.08866H66.3325L65.8158 9.55059L64.864 14.3933L64.1841 19.2089L62.6068 27.0005H57.4398ZM67.801 17.8562C68.49 17.8562 69.0973 17.6849 69.6231 17.3422C70.1489 16.9995 70.5568 16.5215 70.8469 15.9083C71.1551 15.2951 71.3092 14.5827 71.3092 13.771C71.3092 12.9233 71.0644 12.247 70.5749 11.742C70.0854 11.2189 69.3965 10.9574 68.5081 10.9574C67.8373 10.9574 67.23 11.1378 66.6861 11.4985C66.1603 11.8412 65.7433 12.3191 65.4351 12.9324C65.145 13.5456 65 14.258 65 15.0696C65 15.9173 65.2447 16.5937 65.7342 17.0987C66.2238 17.6037 66.9127 17.8562 67.801 17.8562Z" fill="url(#paint4_linear_52_8379)"/>
<path d="M79.7934 21.752L82.7576 7.06161H76.9107L77.7809 2.81411H94.8321L93.9619 7.06161H88.1422L85.1779 21.752H79.7934Z" fill="url(#paint5_linear_52_8379)"/>
<path d="M92.494 21.752L95.431 7.08866H100.326L99.4831 11.255L98.9936 10.0646C99.6462 8.89227 100.507 8.06261 101.577 7.57564C102.647 7.08866 103.898 6.84518 105.33 6.84518L104.433 11.4714C104.215 11.4354 104.016 11.4173 103.834 11.4173C103.653 11.3993 103.463 11.3903 103.263 11.3903C102.139 11.3903 101.214 11.6608 100.489 12.2019C99.7822 12.7249 99.3108 13.5997 99.0751 14.8261L97.661 21.752H92.494Z" fill="url(#paint6_linear_52_8379)"/>
<path d="M104.498 21.752L107.435 7.08866H112.575L109.638 21.752H104.498ZM110.726 5.46542C109.819 5.46542 109.094 5.22193 108.55 4.73496C108.024 4.22995 107.761 3.62574 107.761 2.92233C107.761 2.09267 108.06 1.39828 108.659 0.839164C109.275 0.280047 110.082 0.000488281 111.079 0.000488281C111.986 0.000488281 112.711 0.234957 113.255 0.703894C113.799 1.17283 114.071 1.759 114.071 2.46241C114.071 3.34618 113.762 4.06762 113.146 4.62674C112.53 5.18586 111.723 5.46542 110.726 5.46542Z" fill="url(#paint7_linear_52_8379)"/>
<path d="M123.005 21.9955C121.826 21.9955 120.802 21.77 119.932 21.3191C119.061 20.8502 118.427 20.1017 118.028 19.0736C117.629 18.0456 117.539 16.6748 117.756 14.9614C117.937 13.2841 118.327 11.8412 118.925 10.6328C119.542 9.42434 120.34 8.49548 121.319 7.84618C122.316 7.17884 123.467 6.84518 124.772 6.84518C125.842 6.84518 126.848 7.1067 127.791 7.62975C128.752 8.15279 129.522 8.91031 130.103 9.90229C130.701 10.8762 131 12.0756 131 13.5005C131 14.7269 130.791 15.8542 130.375 16.8823C129.958 17.9103 129.377 18.8121 128.634 19.5877C127.909 20.3452 127.066 20.9404 126.105 21.3732C125.144 21.7881 124.111 21.9955 123.005 21.9955ZM111.909 27.0005L115.907 7.08866H120.802L120.285 9.55059L119.333 14.3933L118.654 19.2089L117.076 27.0005H111.909ZM122.27 17.8562C122.959 17.8562 123.567 17.6849 124.093 17.3422C124.618 16.9995 125.026 16.5215 125.316 15.9083C125.624 15.2951 125.779 14.5827 125.779 13.771C125.779 12.9233 125.534 12.247 125.044 11.742C124.555 11.2189 123.866 10.9574 122.978 10.9574C122.307 10.9574 121.699 11.1378 121.155 11.4985C120.63 11.8412 120.213 12.3191 119.904 12.9324C119.614 13.5456 119.469 14.258 119.469 15.0696C119.469 15.9173 119.714 16.5937 120.204 17.0987C120.693 17.6037 121.382 17.8562 122.27 17.8562Z" fill="url(#paint8_linear_52_8379)"/>
<defs>
<linearGradient id="paint0_linear_52_8379" x1="135.774" y1="-16.2825" x2="-13.8424" y2="9.24323" gradientUnits="userSpaceOnUse">
<stop stop-color="#20DDB7"/>
<stop offset="1" stop-color="#22BB9C"/>
</linearGradient>
<linearGradient id="paint1_linear_52_8379" x1="135.774" y1="-16.2825" x2="-13.8424" y2="9.24323" gradientUnits="userSpaceOnUse">
<stop stop-color="#20DDB7"/>
<stop offset="1" stop-color="#22BB9C"/>
</linearGradient>
<linearGradient id="paint2_linear_52_8379" x1="135.774" y1="-16.2825" x2="-13.8424" y2="9.24323" gradientUnits="userSpaceOnUse">
<stop stop-color="#20DDB7"/>
<stop offset="1" stop-color="#22BB9C"/>
</linearGradient>
<linearGradient id="paint3_linear_52_8379" x1="135.774" y1="-16.2825" x2="-13.8424" y2="9.24323" gradientUnits="userSpaceOnUse">
<stop stop-color="#20DDB7"/>
<stop offset="1" stop-color="#22BB9C"/>
</linearGradient>
<linearGradient id="paint4_linear_52_8379" x1="135.774" y1="-16.2825" x2="-13.8424" y2="9.24323" gradientUnits="userSpaceOnUse">
<stop stop-color="#20DDB7"/>
<stop offset="1" stop-color="#22BB9C"/>
</linearGradient>
<linearGradient id="paint5_linear_52_8379" x1="135.774" y1="-16.2825" x2="-13.8424" y2="9.24323" gradientUnits="userSpaceOnUse">
<stop stop-color="#20DDB7"/>
<stop offset="1" stop-color="#22BB9C"/>
</linearGradient>
<linearGradient id="paint6_linear_52_8379" x1="135.774" y1="-16.2825" x2="-13.8424" y2="9.24323" gradientUnits="userSpaceOnUse">
<stop stop-color="#20DDB7"/>
<stop offset="1" stop-color="#22BB9C"/>
</linearGradient>
<linearGradient id="paint7_linear_52_8379" x1="135.774" y1="-16.2825" x2="-13.8424" y2="9.24323" gradientUnits="userSpaceOnUse">
<stop stop-color="#20DDB7"/>
<stop offset="1" stop-color="#22BB9C"/>
</linearGradient>
<linearGradient id="paint8_linear_52_8379" x1="135.774" y1="-16.2825" x2="-13.8424" y2="9.24323" gradientUnits="userSpaceOnUse">
<stop stop-color="#20DDB7"/>
<stop offset="1" stop-color="#22BB9C"/>
</linearGradient>
</defs>
</svg>
