<svg xmlns="http://www.w3.org/2000/svg" width="176" height="28" viewBox="0 0 176 28" fill="none">
  <path d="M6.40655 27.8476V26.0164C6.41741 25.8624 6.39475 25.7078 6.34006 25.5631C6.28538 25.4184 6.19993 25.2868 6.08942 25.177C5.9789 25.0673 5.84585 24.9819 5.69914 24.9267C5.55242 24.8714 5.3954 24.8475 5.23855 24.8566C5.03323 24.8433 4.82807 24.8845 4.64447 24.9758C4.46087 25.0671 4.30558 25.2051 4.1948 25.3754C4.09382 25.2102 3.94934 25.0748 3.77657 24.9834C3.60381 24.8921 3.40918 24.8483 3.21318 24.8566C3.04234 24.8481 2.8722 24.8836 2.71963 24.9596C2.56707 25.0357 2.43737 25.1495 2.34339 25.29V24.9298H1.69727V27.8476H2.34961V26.2422C2.33573 26.1424 2.34446 26.0409 2.37517 25.9448C2.40589 25.8487 2.45782 25.7605 2.52727 25.6864C2.59672 25.6124 2.68196 25.5543 2.77691 25.5164C2.87185 25.4784 2.97415 25.4616 3.0765 25.467C3.50518 25.467 3.72263 25.7417 3.72263 26.2361V27.8598H4.37497V26.2422C4.36166 26.1425 4.37079 26.0412 4.40171 25.9454C4.43264 25.8495 4.4846 25.7615 4.55393 25.6876C4.62325 25.6137 4.70826 25.5556 4.80294 25.5175C4.89762 25.4793 4.99967 25.4621 5.10187 25.467C5.54297 25.467 5.75421 25.7417 5.75421 26.2361V27.8598L6.40655 27.8476ZM16.0581 24.9298H14.9957V24.0447H14.3434V24.9298H13.7532V25.5097H14.3558V26.8526C14.3558 27.5302 14.6229 27.9331 15.3871 27.9331C15.6726 27.934 15.9526 27.8557 16.1948 27.7072L16.0084 27.164C15.8351 27.2655 15.6385 27.3222 15.4368 27.3288C15.1262 27.3288 15.0081 27.1334 15.0081 26.8404V25.5097H16.0643L16.0581 24.9298ZM21.5688 24.8566C21.4113 24.852 21.2554 24.8893 21.1177 24.9645C20.9799 25.0397 20.8653 25.15 20.786 25.2839V24.9298H20.1461V27.8476H20.7922V26.2117C20.7922 25.7295 21.0035 25.4609 21.4135 25.4609C21.5517 25.459 21.6889 25.4839 21.8173 25.5341L22.0161 24.9237C21.8686 24.8718 21.7131 24.845 21.5564 24.8444L21.5688 24.8566ZM13.2375 25.1618C12.8718 24.9481 12.4513 24.8422 12.026 24.8566C11.2743 24.8566 10.7834 25.2106 10.7834 25.7905C10.7834 26.2666 11.1438 26.5596 11.8086 26.6512L12.1192 26.6939C12.4733 26.7428 12.6411 26.8343 12.6411 26.9991C12.6411 27.225 12.405 27.3532 11.9639 27.3532C11.6091 27.3633 11.2611 27.2558 10.976 27.048L10.6654 27.5424C11.0418 27.8006 11.4926 27.9333 11.9515 27.9209C12.8088 27.9209 13.3058 27.5241 13.3058 26.9686C13.3058 26.4131 12.9144 26.1873 12.2683 26.0957L11.9577 26.053C11.6781 26.0164 11.4544 25.9614 11.4544 25.7661C11.4544 25.5708 11.6657 25.4243 12.0198 25.4243C12.3471 25.428 12.668 25.5142 12.9517 25.6745L13.2375 25.1618ZM30.5432 24.8566C30.3856 24.852 30.2298 24.8893 30.092 24.9645C29.9542 25.0397 29.8397 25.15 29.7604 25.2839V24.9298H29.1205V27.8476H29.7666V26.2117C29.7666 25.7295 29.9778 25.4609 30.3879 25.4609C30.5261 25.459 30.6633 25.4839 30.7917 25.5341L30.9905 24.9237C30.8429 24.8718 30.6875 24.845 30.5308 24.8444L30.5432 24.8566ZM22.2181 26.3826C22.2104 26.5877 22.2463 26.792 22.3237 26.9826C22.401 27.1732 22.5179 27.3459 22.6671 27.4895C22.8162 27.6332 22.9942 27.7446 23.1897 27.8168C23.3852 27.889 23.5938 27.9203 23.8023 27.9087C24.1903 27.9281 24.5715 27.8039 24.8709 27.5607L24.5603 27.048C24.3369 27.2153 24.0646 27.3074 23.7837 27.3105C23.5449 27.2915 23.322 27.1848 23.1596 27.0118C22.9971 26.8387 22.9069 26.6119 22.9069 26.3765C22.9069 26.1411 22.9971 25.9143 23.1596 25.7412C23.322 25.5682 23.5449 25.4616 23.7837 25.4426C24.0646 25.4456 24.3369 25.5377 24.5603 25.7051L24.8709 25.1923C24.5715 24.9491 24.1903 24.825 23.8023 24.8444C23.5938 24.8328 23.3852 24.864 23.1897 24.9362C22.9942 25.0084 22.8162 25.1199 22.6671 25.2635C22.5179 25.4071 22.401 25.5798 22.3237 25.7704C22.2463 25.961 22.2104 26.1654 22.2181 26.3704V26.3826ZM28.2693 26.3826V24.9298H27.6232V25.2839C27.5135 25.1451 27.3717 25.0341 27.2097 24.9598C27.0476 24.8855 26.87 24.8501 26.6913 24.8566C26.2793 24.8566 25.8843 25.0174 25.593 25.3035C25.3017 25.5897 25.1381 25.9779 25.1381 26.3826C25.1381 26.7874 25.3017 27.1755 25.593 27.4617C25.8843 27.7479 26.2793 27.9087 26.6913 27.9087C26.87 27.9151 27.0476 27.8798 27.2097 27.8055C27.3717 27.7312 27.5135 27.6201 27.6232 27.4814V27.8354H28.2693V26.3826ZM25.865 26.3826C25.8753 26.2109 25.9365 26.0458 26.041 25.9078C26.1456 25.7698 26.2889 25.6649 26.4535 25.6059C26.618 25.5469 26.7964 25.5365 26.9669 25.5759C27.1373 25.6154 27.2923 25.7029 27.4128 25.8278C27.5332 25.9526 27.6139 26.1094 27.6448 26.2788C27.6757 26.4481 27.6556 26.6226 27.5868 26.7809C27.518 26.9391 27.4037 27.0741 27.2578 27.1693C27.1119 27.2645 26.9409 27.3157 26.7658 27.3166C26.6428 27.3181 26.5208 27.2946 26.4075 27.2476C26.2942 27.2005 26.192 27.1309 26.1074 27.0432C26.0228 26.9555 25.9576 26.8515 25.9159 26.7378C25.8741 26.6242 25.8568 26.5032 25.865 26.3826ZM18.0679 24.8566C17.656 24.8622 17.2632 25.0284 16.976 25.3186C16.6888 25.6088 16.5307 25.9993 16.5365 26.404C16.5422 26.8087 16.7114 27.1946 17.0068 27.4768C17.3021 27.759 17.6995 27.9143 18.1114 27.9087C18.5583 27.9312 18.9979 27.7898 19.3447 27.5119L19.034 27.0419C18.7887 27.2352 18.4848 27.3426 18.1704 27.3471C17.9569 27.3651 17.7445 27.3006 17.5786 27.1672C17.4127 27.0339 17.3063 26.8422 17.282 26.6329H19.4875C19.4875 26.5535 19.4875 26.4742 19.4875 26.3887C19.4875 25.4731 18.9098 24.8627 18.0772 24.8627L18.0679 24.8566ZM18.0679 25.4243C18.1646 25.4222 18.2608 25.4389 18.3509 25.4734C18.441 25.5079 18.5233 25.5595 18.5931 25.6253C18.6629 25.691 18.7189 25.7697 18.7577 25.8567C18.7966 25.9437 18.8177 26.0374 18.8197 26.1323H17.2665C17.2777 25.9364 17.3666 25.7526 17.5141 25.6203C17.6615 25.4879 17.8559 25.4176 18.0555 25.4243H18.0679ZM34.2553 26.3887V23.7578H33.634V25.2839C33.5243 25.1451 33.3826 25.0341 33.2205 24.9598C33.0585 24.8855 32.8808 24.8501 32.7021 24.8566C32.2902 24.8566 31.8951 25.0174 31.6038 25.3035C31.3126 25.5897 31.1489 25.9779 31.1489 26.3826C31.1489 26.7874 31.3126 27.1755 31.6038 27.4617C31.8951 27.7479 32.2902 27.9087 32.7021 27.9087C32.8808 27.9151 33.0585 27.8798 33.2205 27.8055C33.3826 27.7312 33.5243 27.6201 33.634 27.4814V27.8354H34.2553V26.3887ZM35.3332 27.4234C35.3736 27.4229 35.4137 27.4302 35.4513 27.4448C35.4869 27.4591 35.5196 27.4798 35.5476 27.5058C35.5749 27.5321 35.597 27.5632 35.6128 27.5974C35.6285 27.633 35.6367 27.6714 35.6367 27.7103C35.6367 27.7491 35.6285 27.7876 35.6128 27.8232C35.597 27.8574 35.5749 27.8885 35.5476 27.9148C35.5196 27.9408 35.4869 27.9615 35.4513 27.9758C35.4141 27.9919 35.3739 28.0003 35.3332 28.0002C35.2743 27.9998 35.2168 27.9829 35.1673 27.9516C35.1178 27.9202 35.0784 27.8757 35.0537 27.8232C35.0381 27.7875 35.0301 27.7491 35.0301 27.7103C35.0301 27.6715 35.0381 27.633 35.0537 27.5974C35.0695 27.5632 35.0916 27.5321 35.1189 27.5058C35.1469 27.4798 35.1795 27.4591 35.2152 27.4448C35.2556 27.4289 35.299 27.4217 35.3426 27.4234H35.3332ZM35.3332 27.9392C35.3642 27.9394 35.3949 27.9331 35.4233 27.9209C35.45 27.9092 35.4743 27.8926 35.4948 27.872C35.5336 27.8304 35.5552 27.7759 35.5552 27.7194C35.5552 27.6629 35.5336 27.6085 35.4948 27.5668C35.4743 27.5462 35.4501 27.5297 35.4233 27.518C35.3949 27.5058 35.3642 27.4996 35.3332 27.4997C35.3023 27.4999 35.2716 27.5061 35.2431 27.518C35.2152 27.5292 35.1899 27.5458 35.1686 27.5668C35.1297 27.6085 35.1082 27.6629 35.1082 27.7194C35.1082 27.7759 35.1297 27.8304 35.1686 27.872C35.1899 27.893 35.2153 27.9096 35.2431 27.9209C35.2745 27.9342 35.3084 27.9404 35.3426 27.9392H35.3332ZM35.3519 27.576C35.3809 27.5746 35.4094 27.5832 35.4326 27.6004C35.4421 27.6081 35.4496 27.618 35.4545 27.6291C35.4594 27.6403 35.4615 27.6524 35.4606 27.6645C35.461 27.6746 35.4593 27.6848 35.4556 27.6942C35.4519 27.7037 35.4461 27.7123 35.4389 27.7194C35.4208 27.7355 35.3979 27.7452 35.3736 27.7469L35.4637 27.8476H35.3923L35.3084 27.7469H35.2804V27.8476H35.2214V27.579L35.3519 27.576ZM35.2835 27.6279V27.7011H35.3519C35.364 27.7047 35.377 27.7047 35.3891 27.7011C35.3913 27.6969 35.3925 27.6922 35.3925 27.6874C35.3925 27.6826 35.3913 27.6779 35.3891 27.6737C35.3913 27.6694 35.3925 27.6647 35.3925 27.6599C35.3925 27.6552 35.3913 27.6505 35.3891 27.6462C35.377 27.6426 35.364 27.6426 35.3519 27.6462L35.2835 27.6279ZM31.8665 26.3887C31.8768 26.217 31.938 26.0519 32.0426 25.9139C32.1471 25.7759 32.2905 25.671 32.455 25.612C32.6195 25.553 32.798 25.5426 32.9684 25.582C33.1389 25.6215 33.2938 25.709 33.4143 25.8339C33.5348 25.9588 33.6154 26.1155 33.6463 26.2849C33.6773 26.4542 33.6571 26.6287 33.5883 26.787C33.5196 26.9452 33.4052 27.0802 33.2594 27.1754C33.1135 27.2706 32.9425 27.3218 32.7674 27.3227C32.6444 27.3242 32.5224 27.3007 32.4091 27.2537C32.2958 27.2066 32.1936 27.1371 32.109 27.0493C32.0244 26.9616 31.9591 26.8576 31.9174 26.7439C31.8757 26.6303 31.8584 26.5093 31.8665 26.3887ZM10.0503 26.3887V24.9298H9.40421V25.2839C9.29449 25.1451 9.15276 25.0341 8.99072 24.9598C8.82868 24.8855 8.65099 24.8501 8.4723 24.8566C8.06036 24.8566 7.6653 25.0174 7.37402 25.3035C7.08274 25.5897 6.9191 25.9779 6.9191 26.3826C6.9191 26.7874 7.08274 27.1755 7.37402 27.4617C7.6653 27.7479 8.06036 27.9087 8.4723 27.9087C8.65099 27.9151 8.82868 27.8798 8.99072 27.8055C9.15276 27.7312 9.29449 27.6201 9.40421 27.4814V27.8354H10.0503V26.3887ZM7.646 26.3887C7.6563 26.217 7.7175 26.0519 7.82206 25.9139C7.92663 25.7759 8.06998 25.671 8.23449 25.612C8.39899 25.553 8.57745 25.5426 8.7479 25.582C8.91835 25.6215 9.07334 25.709 9.1938 25.8339C9.31425 25.9588 9.3949 26.1155 9.42583 26.2849C9.45675 26.4542 9.43659 26.6287 9.36783 26.787C9.29907 26.9452 9.18472 27.0802 9.03885 27.1754C8.89297 27.2706 8.72196 27.3218 8.54685 27.3227C8.42334 27.3251 8.30067 27.3022 8.18662 27.2555C8.07258 27.2089 7.96965 27.1394 7.88436 27.0516C7.79907 26.9638 7.73329 26.8595 7.69119 26.7454C7.64909 26.6313 7.63158 26.5098 7.63979 26.3887H7.646Z" fill="#231F20"/>
  <path d="M22.6349 2.35938H12.999V19.7025H22.6349V2.35938Z" fill="#FF5F00"/>
  <path d="M13.611 11.0325C13.6092 9.36201 13.987 7.71299 14.7157 6.21034C15.4444 4.7077 16.505 3.39081 17.8171 2.35941C16.1925 1.08073 14.2415 0.285586 12.187 0.0648707C10.1325 -0.155844 8.05746 0.20677 6.19902 1.11127C4.34059 2.01577 2.77373 3.42567 1.67752 5.17982C0.581322 6.93397 0 8.9616 0 11.031C0 13.1004 0.581322 15.128 1.67752 16.8821C2.77373 18.6363 4.34059 20.0462 6.19902 20.9507C8.05746 21.8552 10.1325 22.2178 12.187 21.9971C14.2415 21.7764 16.1925 20.9812 17.8171 19.7025C16.5054 18.6715 15.4451 17.3551 14.7163 15.853C13.9876 14.3509 13.6096 12.7025 13.611 11.0325Z" fill="#EB001B"/>
  <path d="M35.6361 11.0318C35.636 13.1014 35.0546 15.1291 33.9582 16.8833C32.8618 18.6376 31.2947 20.0474 29.436 20.9518C27.5773 21.8562 25.5021 22.2185 23.4475 21.9975C21.3929 21.7765 19.4419 20.981 17.8174 19.7019C19.1286 18.6699 20.1886 17.3531 20.9175 15.851C21.6464 14.3488 22.0251 12.7005 22.0251 11.0303C22.0251 9.36015 21.6464 7.71181 20.9175 6.20965C20.1886 4.70749 19.1286 3.39073 17.8174 2.35873C19.4419 1.07965 21.3929 0.284121 23.4475 0.0630896C25.5021 -0.157942 27.5773 0.204439 29.436 1.10881C31.2947 2.01318 32.8618 3.42305 33.9582 5.17726C35.0546 6.93147 35.636 8.95924 35.6361 11.0288V11.0318Z" fill="#F79E1B"/>
  <path d="M34.5835 17.8638V17.509H34.7273V17.4355H34.3633V17.509H34.5193V17.8638H34.5835ZM35.2902 17.8638V17.4355H35.18L35.0516 17.7414L34.9231 17.4355H34.8252V17.8638H34.9047V17.5426L35.024 17.821H35.1066L35.2259 17.5426V17.8669L35.2902 17.8638Z" fill="#F79E1B"/>
  <path d="M67.7949 22.5571L70.6755 6.35352H75.1765L72.3859 22.5571H67.7949Z" fill="#3C58BF"/>
  <path d="M67.7949 22.5571L71.4857 6.35352H75.1765L72.3859 22.5571H67.7949Z" fill="#293688"/>
  <path d="M88.6793 6.53266C87.7791 6.17258 86.3387 5.8125 84.5384 5.8125C80.0374 5.8125 76.7967 8.06299 76.7967 11.3037C76.7967 13.7342 79.0472 14.9945 80.8475 15.8047C82.6479 16.6149 83.1881 17.155 83.1881 17.8751C83.1881 18.9554 81.7477 19.4955 80.4875 19.4955C78.6871 19.4955 77.6969 19.2254 76.1665 18.5953L75.5364 18.3252L74.9062 22.016C75.9865 22.4661 77.9669 22.9162 80.0374 22.9162C84.8084 22.9162 87.9591 20.6657 87.9591 17.245C87.9591 15.3546 86.7888 13.9143 84.0883 12.744C82.4679 11.9338 81.4777 11.4837 81.4777 10.6736C81.4777 9.9534 82.2879 9.23325 84.0883 9.23325C85.6186 9.23325 86.6988 9.50331 87.509 9.86338L87.9591 10.0434L88.6793 6.53266Z" fill="#3C58BF"/>
  <path d="M88.6793 6.53266C87.7791 6.17258 86.3387 5.8125 84.5384 5.8125C80.0374 5.8125 77.6068 8.06299 77.6068 11.3037C77.6068 13.7342 79.0472 14.9945 80.8475 15.8047C82.6479 16.6149 83.1881 17.155 83.1881 17.8751C83.1881 18.9554 81.7477 19.4955 80.4875 19.4955C78.6871 19.4955 77.6969 19.2254 76.1665 18.5953L75.5364 18.3252L74.9062 22.016C75.9865 22.4661 77.9669 22.9162 80.0374 22.9162C84.8084 22.9162 87.9591 20.6657 87.9591 17.245C87.9591 15.3546 86.7888 13.9143 84.0883 12.744C82.4679 11.9338 81.4777 11.4837 81.4777 10.6736C81.4777 9.9534 82.2879 9.23325 84.0883 9.23325C85.6186 9.23325 86.6988 9.50331 87.509 9.86338L87.9591 10.0434L88.6793 6.53266Z" fill="#293688"/>
  <path d="M96.4211 6.35352C95.3409 6.35352 94.5307 6.44354 94.0806 7.52377L87.3291 22.5571H92.1902L93.0904 19.8565H98.8516L99.3917 22.5571H103.713L99.9319 6.35352H96.4211ZM94.3506 17.1559C94.6207 16.3457 96.151 12.3848 96.151 12.3848C96.151 12.3848 96.5111 11.3946 96.7812 10.7645L97.0512 12.2948C97.0512 12.2948 97.9514 16.3457 98.1315 17.2459H94.3506V17.1559Z" fill="#3C58BF"/>
  <path d="M97.5013 6.35352C96.4211 6.35352 95.6109 6.44354 95.1608 7.52377L87.3291 22.5571H92.1902L93.0904 19.8565H98.8516L99.3917 22.5571H103.713L99.9319 6.35352H97.5013ZM94.3506 17.1559C94.7107 16.2557 96.151 12.3848 96.151 12.3848C96.151 12.3848 96.5111 11.3946 96.7812 10.7645L97.0512 12.2948C97.0512 12.2948 97.9514 16.3457 98.1315 17.2459H94.3506V17.1559Z" fill="#293688"/>
  <path d="M59.5122 17.6958L59.0621 15.3553C58.2519 12.6547 55.6414 9.68407 52.7607 8.24375L56.8116 22.6469H61.6727L68.9643 6.44336H64.1032L59.5122 17.6958Z" fill="#3C58BF"/>
  <path d="M59.5122 17.6958L59.0621 15.3553C58.2519 12.6547 55.6414 9.68407 52.7607 8.24375L56.8116 22.6469H61.6727L68.9643 6.44336H65.0034L59.5122 17.6958Z" fill="#293688"/>
  <path d="M47 6.35156L47.8102 6.5316C53.5714 7.8819 57.5323 11.3026 59.0626 15.3535L57.4423 7.70186C57.1722 6.62162 56.362 6.35156 55.3718 6.35156H47Z" fill="#FFBC00"/>
  <path d="M47 6.35156C52.7613 7.70186 57.5323 11.2126 59.0626 15.2635L57.5323 8.87211C57.2622 7.79188 56.362 7.16174 55.3718 7.16174L47 6.35156Z" fill="#F7981D"/>
  <path d="M47 6.35156C52.7613 7.70186 57.5323 11.2126 59.0626 15.2635L57.9824 11.7527C57.7123 10.6725 57.3523 9.59227 56.092 9.14217L47 6.35156Z" fill="#ED7C00"/>
  <path d="M64.013 17.1543L60.9524 14.0936L59.512 17.5144L59.152 15.2639C58.3418 12.5633 55.7312 9.59266 52.8506 8.15234L56.9015 22.5555H61.7625L64.013 17.1543Z" fill="#051244"/>
  <path d="M72.3849 22.5546L68.5141 18.5938L67.7939 22.5546H72.3849Z" fill="#051244"/>
  <path d="M82.737 16.9746C83.0971 17.3347 83.2771 17.6047 83.1871 17.9648C83.1871 19.0451 81.7468 19.5852 80.4865 19.5852C78.6861 19.5852 77.6959 19.3151 76.1656 18.685L75.5354 18.4149L74.9053 22.1057C75.9855 22.5558 77.9659 23.0059 80.0364 23.0059C82.917 23.0059 85.2575 22.1958 86.6078 20.7554L82.737 16.9746Z" fill="#051244"/>
  <path d="M87.959 22.5562H92.1899L93.0901 19.8557H98.8514L99.3915 22.5562H103.712L102.182 15.9848L96.7809 10.7637L97.051 12.204C97.051 12.204 97.9512 16.2549 98.1312 17.1551H94.3504C94.7105 16.2549 96.1508 12.384 96.1508 12.384C96.1508 12.384 96.5108 11.3938 96.7809 10.7637" fill="#051244"/>
  <path fill-rule="evenodd" clip-rule="evenodd" d="M123.327 6.16875C123.838 6.16561 125.356 6.02532 126 8.25212C126.433 9.75212 127.123 12.2092 128.07 15.6233H128.456C129.472 12.0239 130.17 9.56684 130.55 8.25212C131.2 6.00212 132.825 6.16879 133.475 6.16879L138.49 6.1688V22.1688H133.378V12.7397H133.035L130.186 22.1688H126.34L123.491 12.7327H123.148V22.1688H118.037V6.1688L123.327 6.16875ZM145.829 6.1688V15.6049H146.237L149.703 7.84565C150.376 6.30155 151.81 6.1688 151.81 6.1688H156.756V22.1688H151.538V12.7327H151.13L147.732 20.4919C147.059 22.0291 145.557 22.1688 145.557 22.1688H140.611V6.1688H145.829ZM174.792 13.7721C174.064 15.8876 171.778 17.4026 169.248 17.4026H163.775V22.1688H158.813V13.7721H174.792Z" fill="#0F754E"/>
  <path fill-rule="evenodd" clip-rule="evenodd" d="M169.487 6.16797H158.553C158.813 9.73011 161.804 12.7795 164.9 12.7795H175.136C175.727 9.81898 173.694 6.16797 169.487 6.16797Z" fill="url(#paint0_linear_128_15636)"/>
  <defs>
    <linearGradient id="paint0_linear_128_15636" x1="1826.95" y1="422.064" x2="158.553" y2="422.064" gradientUnits="userSpaceOnUse">
      <stop stop-color="#1F5CD7"/>
      <stop offset="1" stop-color="#02AEFF"/>
    </linearGradient>
  </defs>
</svg>