<svg xmlns="http://www.w3.org/2000/svg" width="16" height="16" viewBox="0 0 16 16" fill="none">
  <path d="M13.3333 5.99984V3.99984C13.3333 3.64622 13.1928 3.30708 12.9428 3.05703C12.6927 2.80698 12.3536 2.6665 12 2.6665H3.99996C3.64634 2.6665 3.3072 2.80698 3.05715 3.05703C2.8071 3.30708 2.66663 3.64622 2.66663 3.99984V5.99984" stroke="#21D6B1" stroke-width="1.5" stroke-linecap="round" stroke-linejoin="round"/>
  <path d="M1.33337 7.33333V10.6667C1.33337 11.0203 1.47385 11.3594 1.7239 11.6095C1.97395 11.8595 2.31309 12 2.66671 12H13.3334C13.687 12 14.0261 11.8595 14.2762 11.6095C14.5262 11.3594 14.6667 11.0203 14.6667 10.6667V7.33333C14.6667 6.97971 14.5262 6.64057 14.2762 6.39052C14.0261 6.14048 13.687 6 13.3334 6C12.9798 6 12.6406 6.14048 12.3906 6.39052C12.1405 6.64057 12 6.97971 12 7.33333V8.66667H4.00004V7.33333C4.00004 6.97971 3.85957 6.64057 3.60952 6.39052C3.35947 6.14048 3.02033 6 2.66671 6C2.31309 6 1.97395 6.14048 1.7239 6.39052C1.47385 6.64057 1.33337 6.97971 1.33337 7.33333V7.33333Z" stroke="#21D6B1" stroke-width="1.5" stroke-linecap="round" stroke-linejoin="round"/>
  <path d="M2.66663 12V13.3333" stroke="#21D6B1" stroke-width="1.5" stroke-linecap="round" stroke-linejoin="round"/>
  <path d="M13.3334 12V13.3333" stroke="#21D6B1" stroke-width="1.5" stroke-linecap="round" stroke-linejoin="round"/>
  <path d="M8 2.6665V8.6665" stroke="#21D6B1" stroke-width="1.5" stroke-linecap="round" stroke-linejoin="round"/>
</svg>